<?xml version="1.0" encoding="utf-8"?>
<svg xmlns="http://www.w3.org/2000/svg">
<symbol id="account" viewBox="0 0 512 512"><title>ionicons-v5-j</title><path d="M258.9,48C141.92,46.42,46.42,141.92,48,258.9,49.56,371.09,140.91,462.44,253.1,464c117,1.6,212.48-93.9,210.88-210.88C462.44,140.91,371.09,49.56,258.9,48ZM385.32,375.25a4,4,0,0,1-6.14-.32,124.27,124.27,0,0,0-32.35-29.59C321.37,329,289.11,320,256,320s-65.37,9-90.83,25.34a124.24,124.24,0,0,0-32.35,29.58,4,4,0,0,1-6.14.32A175.32,175.32,0,0,1,80,259C78.37,161.69,158.22,80.24,255.57,80S432,158.81,432,256A175.32,175.32,0,0,1,385.32,375.25Z"/><path d="M256,144c-19.72,0-37.55,7.39-50.22,20.82s-19,32-17.57,51.93C191.11,256,221.52,288,256,288s64.83-32,67.79-71.24c1.48-19.74-4.8-38.14-17.68-51.82C293.39,151.44,275.59,144,256,144Z"/>
</symbol>
<symbol id="articles" viewBox="0 0 512 512"><title>ionicons-v5-m</title><polyline points="160 368 32 256 160 144" style="fill:none;stroke:#000;stroke-linecap:round;stroke-linejoin:round;stroke-width:32px"/><polyline points="352 368 480 256 352 144" style="fill:none;stroke:#000;stroke-linecap:round;stroke-linejoin:round;stroke-width:32px"/><line x1="304" y1="96" x2="208" y2="416" style="fill:none;stroke:#000;stroke-linecap:round;stroke-linejoin:round;stroke-width:32px"/>
</symbol>
<symbol id="blog" viewBox="0 0 512 512"><title>ionicons-v5-n</title><path d="M368,415.86V72a24.07,24.07,0,0,0-24-24H72A24.07,24.07,0,0,0,48,72V424a40.12,40.12,0,0,0,40,40H416" style="fill:none;stroke:#000;stroke-linejoin:round;stroke-width:32px"/><path d="M416,464h0a48,48,0,0,1-48-48V128h72a24,24,0,0,1,24,24V416A48,48,0,0,1,416,464Z" style="fill:none;stroke:#000;stroke-linejoin:round;stroke-width:32px"/><line x1="240" y1="128" x2="304" y2="128" style="fill:none;stroke:#000;stroke-linecap:round;stroke-linejoin:round;stroke-width:32px"/><line x1="240" y1="192" x2="304" y2="192" style="fill:none;stroke:#000;stroke-linecap:round;stroke-linejoin:round;stroke-width:32px"/><line x1="112" y1="256" x2="304" y2="256" style="fill:none;stroke:#000;stroke-linecap:round;stroke-linejoin:round;stroke-width:32px"/><line x1="112" y1="320" x2="304" y2="320" style="fill:none;stroke:#000;stroke-linecap:round;stroke-linejoin:round;stroke-width:32px"/><line x1="112" y1="384" x2="304" y2="384" style="fill:none;stroke:#000;stroke-linecap:round;stroke-linejoin:round;stroke-width:32px"/><path d="M176,208H112a16,16,0,0,1-16-16V128a16,16,0,0,1,16-16h64a16,16,0,0,1,16,16v64A16,16,0,0,1,176,208Z"/>
</symbol>
<symbol id="main-logo" viewBox="0 0 32 32">
<title>pushpin</title>
<path d="M17 0l-3 3 3 3-7 8h-7l5.5 5.5-8.5 11.269v1.231h1.231l11.269-8.5 5.5 5.5v-7l8-7 3 3 3-3-15-15zM14 17l-2-2 7-7 2 2-7 7z"/>

</symbol>
<symbol id="portfolio" viewBox="0 0 512 512"><title>ionicons-v5-i</title><path d="M390.42,75.28a10.45,10.45,0,0,1-5.32-1.44C340.72,50.08,302.35,40,256.35,40c-45.77,0-89.23,11.28-128.76,33.84C122,77,115.11,74.8,111.87,69a12.4,12.4,0,0,1,4.63-16.32A281.81,281.81,0,0,1,256.35,16c49.23,0,92.23,11.28,139.39,36.48a12,12,0,0,1,4.85,16.08A11.3,11.3,0,0,1,390.42,75.28Zm-330.79,126a11.73,11.73,0,0,1-6.7-2.16,12.26,12.26,0,0,1-2.78-16.8c22.89-33.6,52-60,86.69-78.48C209.42,65,302.35,64.72,375.16,103.6c34.68,18.48,63.8,44.64,86.69,78a12.29,12.29,0,0,1-2.78,16.8,11.26,11.26,0,0,1-16.18-2.88c-20.8-30.24-47.15-54-78.36-70.56-66.34-35.28-151.18-35.28-217.29.24-31.44,16.8-57.79,40.8-78.59,71A10,10,0,0,1,59.63,201.28ZM204.1,491a10.66,10.66,0,0,1-8.09-3.6C175.9,466.48,165,453,149.55,424c-16-29.52-24.27-65.52-24.27-104.16,0-71.28,58.71-129.36,130.84-129.36S387,248.56,387,319.84a11.56,11.56,0,1,1-23.11,0c0-58.08-48.32-105.36-107.72-105.36S148.4,261.76,148.4,319.84c0,34.56,7.39,66.48,21.49,92.4,14.8,27.6,25,39.36,42.77,58.08a12.67,12.67,0,0,1,0,17A12.44,12.44,0,0,1,204.1,491Zm165.75-44.4c-27.51,0-51.78-7.2-71.66-21.36a129.1,129.1,0,0,1-55-105.36,11.57,11.57,0,1,1,23.12,0,104.28,104.28,0,0,0,44.84,85.44c16.41,11.52,35.6,17,58.72,17a147.41,147.41,0,0,0,24-2.4c6.24-1.2,12.25,3.12,13.4,9.84a11.92,11.92,0,0,1-9.47,13.92A152.28,152.28,0,0,1,369.85,446.56ZM323.38,496a13,13,0,0,1-3-.48c-36.76-10.56-60.8-24.72-86-50.4-32.37-33.36-50.16-77.76-50.16-125.28,0-38.88,31.9-70.56,71.19-70.56s71.2,31.68,71.2,70.56c0,25.68,21.5,46.56,48.08,46.56s48.08-20.88,48.08-46.56c0-90.48-75.13-163.92-167.59-163.92-65.65,0-125.75,37.92-152.79,96.72-9,19.44-13.64,42.24-13.64,67.2,0,18.72,1.61,48.24,15.48,86.64,2.32,6.24-.69,13.2-6.7,15.36a11.34,11.34,0,0,1-14.79-7,276.39,276.39,0,0,1-16.88-95c0-28.8,5.32-55,15.72-77.76,30.75-67,98.94-110.4,173.6-110.4,105.18,0,190.71,84.24,190.71,187.92,0,38.88-31.9,70.56-71.2,70.56s-71.2-31.68-71.2-70.56C303.5,293.92,282,273,255.42,273s-48.08,20.88-48.08,46.56c0,41,15.26,79.44,43.23,108.24,22,22.56,43,35,75.59,44.4,6.24,1.68,9.71,8.4,8.09,14.64A11.39,11.39,0,0,1,323.38,496Z"/>
</symbol>
<symbol id="resources" viewBox="0 0 512 512"><title>ionicons-v5-o</title><path d="M421.83,293.82A144,144,0,0,0,218.18,90.17" style="fill:none;stroke:#000;stroke-miterlimit:10;stroke-width:32px"/><path d="M353.94,225.94a48,48,0,0,0-67.88-67.88" style="fill:none;stroke:#000;stroke-miterlimit:10;stroke-width:32px"/><line x1="192" y1="464" x2="192" y2="416" style="stroke:#000;stroke-linecap:round;stroke-miterlimit:10;stroke-width:32px"/><line x1="90.18" y1="421.82" x2="124.12" y2="387.88" style="stroke:#000;stroke-linecap:round;stroke-miterlimit:10;stroke-width:32px"/><line x1="48" y1="320" x2="96" y2="320" style="stroke:#000;stroke-linecap:round;stroke-miterlimit:10;stroke-width:32px"/><path d="M286.06,158.06,172.92,271.19a32,32,0,0,1-45.25,0L105,248.57a32,32,0,0,1,0-45.26L218.18,90.17" style="fill:none;stroke:#000;stroke-linejoin:round;stroke-width:32px"/><path d="M421.83,293.82,308.69,407a32,32,0,0,1-45.26,0l-22.62-22.63a32,32,0,0,1,0-45.26L353.94,225.94" style="fill:none;stroke:#000;stroke-linejoin:round;stroke-width:32px"/><line x1="139.6" y1="169.98" x2="207.48" y2="237.87" style="fill:none;stroke:#000;stroke-linejoin:round;stroke-width:32px"/><line x1="275.36" y1="305.75" x2="343.25" y2="373.63" style="fill:none;stroke:#000;stroke-linejoin:round;stroke-width:32px"/>
</symbol>
<symbol id="search" viewBox="0 0 32 32">
<title>search</title>
<path d="M31.008 27.231l-7.58-6.447c-0.784-0.705-1.622-1.029-2.299-0.998 1.789-2.096 2.87-4.815 2.87-7.787 0-6.627-5.373-12-12-12s-12 5.373-12 12 5.373 12 12 12c2.972 0 5.691-1.081 7.787-2.87-0.031 0.677 0.293 1.515 0.998 2.299l6.447 7.58c1.104 1.226 2.907 1.33 4.007 0.23s0.997-2.903-0.23-4.007zM12 20c-4.418 0-8-3.582-8-8s3.582-8 8-8 8 3.582 8 8-3.582 8-8 8z"/>

</symbol>
<symbol id="videocam" viewBox="0 0 512 512"><title>ionicons-v5-g</title><path d="M374.79,308.78,457.5,367A16,16,0,0,0,480,352.38V159.62A16,16,0,0,0,457.5,145l-82.71,58.22A16,16,0,0,0,368,216.3v79.4A16,16,0,0,0,374.79,308.78Z" style="fill:none;stroke:#000;stroke-linecap:round;stroke-linejoin:round;stroke-width:32px"/><path d="M268,384H84a52.15,52.15,0,0,1-52-52V180a52.15,52.15,0,0,1,52-52H268.48A51.68,51.68,0,0,1,320,179.52V332A52.15,52.15,0,0,1,268,384Z" style="fill:none;stroke:#000;stroke-miterlimit:10;stroke-width:32px"/>
</symbol></svg>